<svg width="38" height="38" viewBox="0 0 38 38" fill="none" xmlns="http://www.w3.org/2000/svg">
<path fill-rule="evenodd" clip-rule="evenodd" d="M17.416 6.33464C13.9181 6.33464 11.0827 9.17015 11.0827 12.668C11.0827 12.7193 11.0834 12.7729 11.0848 12.8299C11.102 13.5661 10.6092 14.2171 9.89592 14.4004C7.84598 14.9272 6.33268 16.7896 6.33268 19.0013C6.33268 21.6247 8.45937 23.7513 11.0827 23.7513H12.666C13.5405 23.7513 14.2493 24.4602 14.2493 25.3346C14.2493 26.2091 13.5405 26.918 12.666 26.918H11.0827C6.71049 26.918 3.16602 23.3736 3.16602 19.0013C3.16602 15.7356 5.14233 12.9347 7.96234 11.7239C8.43623 6.9204 12.4878 3.16797 17.416 3.16797C20.9366 3.16797 24.0072 5.08275 25.6478 7.9231C30.7487 8.08933 34.8327 12.2767 34.8327 17.418C34.8327 22.6647 30.5795 26.918 25.3327 26.918C24.4582 26.918 23.7494 26.2091 23.7494 25.3346C23.7494 24.4602 24.4582 23.7513 25.3327 23.7513C28.8306 23.7513 31.666 20.9158 31.666 17.418C31.666 13.9202 28.8306 11.0846 25.3327 11.0846C25.1574 11.0846 24.9843 11.0917 24.8131 11.1056C24.1372 11.1603 23.5014 10.7784 23.2322 10.156C22.2584 7.90488 20.0189 6.33464 17.416 6.33464ZM18.9994 15.8346C19.8738 15.8346 20.5827 16.5435 20.5827 17.418L20.5827 29.4288L21.0464 28.9651C21.6648 28.3467 22.6673 28.3467 23.2856 28.9651C23.9039 29.5834 23.9039 30.5859 23.2856 31.2042L20.1189 34.3709C19.822 34.6678 19.4193 34.8346 18.9993 34.8346C18.5794 34.8346 18.1767 34.6678 17.8798 34.3709L14.7131 31.2042C14.0948 30.5859 14.0948 29.5834 14.7131 28.9651C15.3314 28.3467 16.3339 28.3467 16.9523 28.9651L17.416 29.4288L17.416 17.418C17.416 16.5435 18.1249 15.8346 18.9994 15.8346Z" fill="#1B195D"/>
</svg>
