<svg width="420" height="404" viewBox="0 0 420 404" fill="none" xmlns="http://www.w3.org/2000/svg">
<path d="M216.474 43.7855L220.598 27.8054L340.707 230.604L320.603 269.57L322.149 271.116V287.612L311.324 298.437H294.829L284.003 287.612V271.116L294.829 260.759H303.592L320.603 230.604L220.598 59.2502H115.954L17.4957 230.604L30.3829 251.527L130.903 82.4472H154.616L163.379 73.6839H180.39L191.215 83.9937V100.489L180.39 111.83H163.894L153.585 101.52H139.666L1.00006 339.319L14.9182 362.873H71.622L58.7348 339.319H26.259L155.4 123.686H196.886L205.649 114.923H222.145L233.485 125.748V141.728L222.145 153.069H205.649L194.308 141.728H162.754L65.2958 315.448L116.469 403.081H316.995L325.362 379.369H128.857L116.985 358.234H108.222L97.3964 347.408V330.913L108.222 320.087H124.717L135.543 330.913V347.408L132.223 350.501L139.151 362.873H408.752L419.061 339.319L387.616 301.53L378.338 328.851L387.616 339.319H155.31L132.223 301.53H122.655L111.83 290.705V273.693L122.655 263.384H139.151L149.976 273.693V290.705L146.883 293.798L164.925 321.118H363.389L413.391 230.604L314.933 59.2502H288.127L387.616 230.604L376.791 252.043L379.884 255.136V272.147L369.059 282.972H352.563L341.738 272.147V255.651L352.563 244.826H358.749L366.997 230.604L231.939 1H204.103L190.7 43.7855H216.474Z" fill="white" stroke="white"/>
<path d="M365.451 253.074L371.637 259.112V268.48L365.451 274.725H356.172L349.986 268.48V259.112L356.172 253.074H365.451Z" fill="white" stroke="white"/>
<path d="M306.979 269.055L312.87 274.804V283.726L306.979 289.674H298.142L292.251 283.726V274.804L298.142 269.055H306.979Z" fill="white" stroke="white"/>
<path d="M120.373 328.335L126.264 334.085V343.007L120.373 348.955H111.536L105.645 343.007V334.085L111.536 328.335H120.373Z" fill="white" stroke="white"/>
<path d="M135.543 271.117L141.729 277.441V287.255L135.543 293.798H126.264L120.078 287.255V277.441L126.264 271.117H135.543Z" fill="white" stroke="white"/>
<path d="M176.782 81.4169L182.967 87.4541V96.8221L176.782 103.067H167.503L161.317 96.8221V87.4541L167.503 81.4169H176.782Z" fill="white" stroke="white"/>
<path d="M218.316 123.171L224.208 128.921V137.843L218.316 143.791H209.479L203.588 137.843V128.921L209.479 123.171H218.316Z" fill="white" stroke="white"/>
<path d="M256.047 169.006H185.349L149.472 230.478L185.349 294.034H256.047L294.035 230.478L256.047 169.006Z" fill="#003A5B"/>
</svg>
