<svg width="134" height="129" viewBox="0 0 134 129" fill="none" xmlns="http://www.w3.org/2000/svg">
<path d="M69.0345 14.5092L70.3366 9.46362L108.26 73.4957L101.912 85.799L102.401 86.2873V91.4957L98.9827 94.9137H93.7744L90.3563 91.4957V86.2873L93.7744 83.0172H96.5413L101.912 73.4957L70.3366 19.3921H37.2959L6.20839 73.4957L10.2774 80.1023L42.016 26.7164H49.5031L52.27 23.9494H57.6412L61.0592 27.2047V32.4131L57.6412 35.9938H52.4328L49.1776 32.7386H44.783L1 107.822L5.39458 115.259H23.2984L19.2293 107.822H8.97534L49.7506 39.7374H62.8496L65.6165 36.9704H70.8249L74.4057 40.3884V45.434L70.8249 49.0148H65.6165L62.0358 45.434H52.0726L21.3009 100.285L37.4587 127.954H100.773L103.415 120.467H41.3701L37.6215 113.794H34.8545L31.4365 110.376V105.168L34.8545 101.75H40.0629L43.4809 105.168V110.376L42.4328 111.353L44.6202 115.259H129.745L133 107.822L123.072 95.8903L120.142 104.517L123.072 107.822H49.7224L42.4328 95.8903H39.4118L35.9938 92.4723V87.1011L39.4118 83.8459H44.6202L48.0382 87.1011V92.4723L47.0617 93.4488L52.7583 102.075H115.422L131.21 73.4957L100.122 19.3921H91.6584L123.072 73.4957L119.654 80.2651L120.63 81.2417V86.6128L117.212 90.0308H112.004L108.586 86.6128V81.4044L112.004 77.9864H113.957L116.561 73.4957L73.9174 1H65.1282L60.8964 14.5092H69.0345Z" fill="#003A5B" stroke="#003A5B"/>
<path d="M116.073 80.5908L118.026 82.497V85.4548L116.073 87.4268H113.143L111.19 85.4548V82.497L113.143 80.5908H116.073Z" fill="#003A5B" stroke="#003A5B"/>
<path d="M97.6108 85.6365L99.4709 87.4519V90.2689L97.6108 92.147H94.8206L92.9605 90.2689V87.4519L94.8206 85.6365H97.6108Z" fill="#003A5B" stroke="#003A5B"/>
<path d="M38.6911 104.354L40.5513 106.169V108.986L38.6911 110.864H35.9009L34.0408 108.986V106.169L35.9009 104.354H38.6911Z" fill="#003A5B" stroke="#003A5B"/>
<path d="M43.4809 86.2874L45.4341 88.2844V91.3831L43.4809 93.4489H40.5512L38.5981 91.3831V88.2844L40.5512 86.2874H43.4809Z" fill="#003A5B" stroke="#003A5B"/>
<path d="M56.5019 26.3911L58.4551 28.2973V31.2552L56.5019 33.2271H53.5722L51.6191 31.2552V28.2973L53.5722 26.3911H56.5019Z" fill="#003A5B" stroke="#003A5B"/>
<path d="M69.6162 39.5747L71.4763 41.3901V44.2072L69.6162 46.0852H66.826L64.9658 44.2072V41.3901L66.826 39.5747H69.6162Z" fill="#003A5B" stroke="#003A5B"/>
<path d="M81.5293 54.0467H59.2066L47.8787 73.456L59.2066 93.5233H81.5293L93.5235 73.456L81.5293 54.0467Z" fill="white"/>
</svg>
